<mxfile host="app.diagrams.net" modified="2022-11-05T16:17:41.985Z" agent="5.0 (Macintosh; Intel Mac OS X 10_15_7) AppleWebKit/537.36 (KHTML, like Gecko) Chrome/107.0.0.0 Safari/537.36" etag="hONNdr3vBC0F9Q9KhmSM" version="20.3.2" type="github">
  <diagram id="wHfkOTOKG5deZro92lXi" name="第 1 页">
    <mxGraphModel dx="946" dy="1706" grid="1" gridSize="10" guides="1" tooltips="1" connect="1" arrows="1" fold="1" page="1" pageScale="1" pageWidth="827" pageHeight="1169" math="0" shadow="0">
      <root>
        <mxCell id="0" />
        <mxCell id="1" parent="0" />
        <mxCell id="gDJo4SJLUXZ564vEYORO-6" style="edgeStyle=orthogonalEdgeStyle;rounded=0;orthogonalLoop=1;jettySize=auto;html=1;exitX=0.5;exitY=1;exitDx=0;exitDy=0;endArrow=classic;endFill=1;startArrow=classic;startFill=1;" parent="1" source="gDJo4SJLUXZ564vEYORO-1" target="gDJo4SJLUXZ564vEYORO-4" edge="1">
          <mxGeometry relative="1" as="geometry" />
        </mxCell>
        <mxCell id="gDJo4SJLUXZ564vEYORO-1" value="&lt;b&gt;&lt;font style=&quot;font-size: 16px;&quot;&gt;光猫&lt;/font&gt;&lt;/b&gt;&lt;br&gt;192.168.1.1" style="shape=process;whiteSpace=wrap;html=1;backgroundOutline=1;" parent="1" vertex="1">
          <mxGeometry x="220" y="-610" width="180" height="60" as="geometry" />
        </mxCell>
        <mxCell id="gDJo4SJLUXZ564vEYORO-20" style="edgeStyle=none;rounded=0;orthogonalLoop=1;jettySize=auto;html=1;exitX=0.55;exitY=0.95;exitDx=0;exitDy=0;exitPerimeter=0;entryX=0.5;entryY=0;entryDx=0;entryDy=0;fontSize=16;startArrow=classic;startFill=1;endArrow=classic;endFill=1;" parent="1" source="gDJo4SJLUXZ564vEYORO-2" target="gDJo4SJLUXZ564vEYORO-1" edge="1">
          <mxGeometry relative="1" as="geometry" />
        </mxCell>
        <mxCell id="gDJo4SJLUXZ564vEYORO-2" value="互联网" style="ellipse;shape=cloud;whiteSpace=wrap;html=1;" parent="1" vertex="1">
          <mxGeometry x="210" y="-780" width="180" height="110" as="geometry" />
        </mxCell>
        <mxCell id="gDJo4SJLUXZ564vEYORO-7" style="edgeStyle=orthogonalEdgeStyle;rounded=0;orthogonalLoop=1;jettySize=auto;html=1;exitX=1;exitY=0.75;exitDx=0;exitDy=0;entryX=0;entryY=0.75;entryDx=0;entryDy=0;endArrow=classic;endFill=1;" parent="1" source="gDJo4SJLUXZ564vEYORO-4" target="gDJo4SJLUXZ564vEYORO-5" edge="1">
          <mxGeometry relative="1" as="geometry" />
        </mxCell>
        <mxCell id="gDJo4SJLUXZ564vEYORO-16" style="rounded=0;orthogonalLoop=1;jettySize=auto;html=1;exitX=0.25;exitY=1;exitDx=0;exitDy=0;entryX=0.5;entryY=0;entryDx=0;entryDy=0;endArrow=classic;endFill=1;startArrow=classic;startFill=1;" parent="1" source="gDJo4SJLUXZ564vEYORO-4" target="gDJo4SJLUXZ564vEYORO-13" edge="1">
          <mxGeometry relative="1" as="geometry" />
        </mxCell>
        <mxCell id="gDJo4SJLUXZ564vEYORO-17" style="rounded=0;orthogonalLoop=1;jettySize=auto;html=1;exitX=0.5;exitY=1;exitDx=0;exitDy=0;entryX=0.5;entryY=0;entryDx=0;entryDy=0;endArrow=classic;endFill=1;startArrow=classic;startFill=1;" parent="1" source="gDJo4SJLUXZ564vEYORO-4" target="gDJo4SJLUXZ564vEYORO-14" edge="1">
          <mxGeometry relative="1" as="geometry" />
        </mxCell>
        <mxCell id="gDJo4SJLUXZ564vEYORO-18" style="rounded=0;orthogonalLoop=1;jettySize=auto;html=1;exitX=0.75;exitY=1;exitDx=0;exitDy=0;entryX=0.5;entryY=0;entryDx=0;entryDy=0;endArrow=classic;endFill=1;startArrow=classic;startFill=1;" parent="1" source="gDJo4SJLUXZ564vEYORO-4" target="gDJo4SJLUXZ564vEYORO-15" edge="1">
          <mxGeometry relative="1" as="geometry" />
        </mxCell>
        <mxCell id="gDJo4SJLUXZ564vEYORO-4" value="&lt;b&gt;&lt;font style=&quot;font-size: 16px;&quot;&gt;TP-LINK路由器&lt;/font&gt;&lt;/b&gt;&lt;br&gt;LAN IP：192.168.2.1&lt;br&gt;DHCP: 开&lt;br&gt;网关地址:旁路由的IP&lt;br&gt;DNS:旁路由的IP&lt;br&gt;备用DNS:旁路由的IP" style="shape=process;whiteSpace=wrap;html=1;backgroundOutline=1;" parent="1" vertex="1">
          <mxGeometry x="220" y="-500" width="180" height="100" as="geometry" />
        </mxCell>
        <mxCell id="gDJo4SJLUXZ564vEYORO-19" style="edgeStyle=none;rounded=0;orthogonalLoop=1;jettySize=auto;html=1;exitX=0;exitY=0.25;exitDx=0;exitDy=0;entryX=1;entryY=0.25;entryDx=0;entryDy=0;startArrow=none;startFill=0;endArrow=classic;endFill=1;" parent="1" source="gDJo4SJLUXZ564vEYORO-5" target="gDJo4SJLUXZ564vEYORO-4" edge="1">
          <mxGeometry relative="1" as="geometry" />
        </mxCell>
        <mxCell id="gDJo4SJLUXZ564vEYORO-5" value="&lt;b&gt;&lt;font style=&quot;font-size: 16px;&quot;&gt;N1 旁路由&lt;/font&gt;&lt;/b&gt;&lt;br&gt;旁路由IP:192.168.2.x(x为1~255)&lt;br&gt;网关地址：主路由LAN地址&lt;br&gt;DNS：114dns" style="shape=process;whiteSpace=wrap;html=1;backgroundOutline=1;" parent="1" vertex="1">
          <mxGeometry x="530" y="-500" width="180" height="100" as="geometry" />
        </mxCell>
        <mxCell id="gDJo4SJLUXZ564vEYORO-13" value="手机" style="whiteSpace=wrap;html=1;aspect=fixed;" parent="1" vertex="1">
          <mxGeometry x="190" y="-300" width="80" height="80" as="geometry" />
        </mxCell>
        <mxCell id="gDJo4SJLUXZ564vEYORO-14" value="平板" style="whiteSpace=wrap;html=1;aspect=fixed;" parent="1" vertex="1">
          <mxGeometry x="320" y="-300" width="80" height="80" as="geometry" />
        </mxCell>
        <mxCell id="gDJo4SJLUXZ564vEYORO-15" value="其他" style="whiteSpace=wrap;html=1;aspect=fixed;" parent="1" vertex="1">
          <mxGeometry x="430" y="-300" width="80" height="80" as="geometry" />
        </mxCell>
      </root>
    </mxGraphModel>
  </diagram>
</mxfile>
